# xmcd
#
# Track frame offsets:
#	183
#	26783
#	47183
#	67695
#
# Disc length: 1174 seconds
#
# Revision: 0
# Processed by: cddbd v1.5.1PL0 Copyright (c) Steve Scherf et al.
# Submitted via: audiograbber 1.83.01
#
DISCID=2d049404
DTITLE=Bad Boys Blue - Hungry For Love (Maxi)
DYEAR=1988
DGENRE=Pop
TTITLE0=Hungry For Love (Club Mix)
TTITLE1=Hungry For Love (Radio Edit)
TTITLE2=Hungry For Love (Instrumental)
TTITLE3=Pretty Young Girl (Club Mix '88)
EXTD=
EXTT0=
EXTT1=
EXTT2=
EXTT3=
PLAYORDER=
